<svg width="832" height="123" viewBox="0 0 832 123" fill="none" xmlns="http://www.w3.org/2000/svg">
<path d="M122.922 61.5L0 118.449V61.5C0 27.5397 27.5223 0 61.4611 0C95.3999 0 122.922 27.5397 122.922 61.5Z" fill="white"/>
<path d="M122.922 61.5L245.844 4.551V61.5C245.844 95.4603 218.322 123 184.383 123C150.445 123 122.922 95.4603 122.922 61.5Z" fill="white"/>
<path d="M279.033 76.5675C280.918 79.8475 282.926 82.7585 285.057 85.3005C287.269 87.7605 289.687 89.6875 292.309 91.0815C294.931 92.3935 297.882 93.0495 301.159 93.0495C305.093 93.0495 308.289 91.9835 310.747 89.8515C313.206 87.7195 314.435 84.9725 314.435 81.6105C314.435 78.4125 313.657 75.8705 312.1 73.9845C310.543 72.0165 308.371 70.3765 305.585 69.0645C302.88 67.6705 299.725 66.3175 296.12 65.0055C293.989 64.2675 291.612 63.2835 288.99 62.0535C286.368 60.7415 283.868 59.1425 281.492 57.2565C279.115 55.2885 277.149 52.9105 275.592 50.1225C274.035 47.2525 273.256 43.8085 273.256 39.7905C273.256 35.1985 274.444 31.1805 276.821 27.7365C279.197 24.2105 282.393 21.5045 286.409 19.6185C290.506 17.6505 295.136 16.6665 300.299 16.6665C305.38 16.6665 309.805 17.5685 313.575 19.3725C317.344 21.1765 320.499 23.4725 323.04 26.2605C325.662 29.0485 327.711 31.9595 329.186 34.9935L317.385 41.6355C316.32 39.5035 314.968 37.5355 313.329 35.7315C311.69 33.8455 309.764 32.3695 307.551 31.3035C305.421 30.1555 302.921 29.5815 300.053 29.5815C296.038 29.5815 293.088 30.5245 291.203 32.4105C289.318 34.2145 288.376 36.3465 288.376 38.8065C288.376 41.0205 289.031 43.0295 290.342 44.8335C291.735 46.5555 293.866 48.1955 296.734 49.7535C299.602 51.3115 303.331 52.9105 307.92 54.5505C310.461 55.4525 313.001 56.6005 315.541 57.9945C318.164 59.3885 320.54 61.1515 322.671 63.2835C324.801 65.3335 326.481 67.7525 327.711 70.5405C329.022 73.3285 329.677 76.6085 329.677 80.3805C329.677 84.3985 328.899 88.0065 327.342 91.2045C325.785 94.4025 323.654 97.1085 320.95 99.3225C318.246 101.455 315.173 103.095 311.731 104.243C308.371 105.473 304.847 106.088 301.159 106.088C296.079 106.088 291.367 105.104 287.023 103.136C282.762 101.086 279.033 98.3795 275.837 95.0175C272.641 91.6555 270.101 88.0065 268.216 84.0705L279.033 76.5675Z" fill="white"/>
<path d="M368.042 105.473C362.305 105.473 357.224 104.243 352.799 101.783C348.456 99.3225 345.096 95.8785 342.72 91.4505C340.343 87.0225 339.155 81.8565 339.155 75.9525C339.155 69.9665 340.343 64.7595 342.72 60.3315C345.178 55.9035 348.62 52.5005 353.045 50.1225C357.47 47.6625 362.674 46.4325 368.656 46.4325C374.638 46.4325 379.719 47.5805 383.899 49.8765C388.078 52.1725 391.274 55.4935 393.487 59.8395C395.781 64.1035 396.928 69.2695 396.928 75.3375C396.928 75.9935 396.887 76.6905 396.805 77.4285C396.805 78.1665 396.764 78.6995 396.682 79.0275H347.022V69.9255H385.374L381.317 75.5835C381.563 75.0915 381.809 74.4355 382.055 73.6155C382.383 72.7135 382.546 71.9755 382.546 71.4015C382.546 68.3675 381.932 65.7435 380.703 63.5295C379.555 61.3155 377.916 59.5935 375.786 58.3635C373.737 57.1335 371.32 56.5185 368.533 56.5185C365.173 56.5185 362.305 57.2565 359.929 58.7325C357.552 60.2085 355.749 62.3405 354.52 65.1285C353.291 67.9165 352.635 71.3605 352.553 75.4605C352.553 79.5605 353.168 83.0455 354.397 85.9155C355.626 88.7035 357.429 90.8355 359.806 92.3115C362.264 93.7875 365.214 94.5255 368.656 94.5255C372.262 94.5255 375.417 93.7875 378.121 92.3115C380.826 90.8355 383.079 88.5805 384.882 85.5465L396.314 90.2205C393.364 95.3045 389.553 99.1175 384.882 101.66C380.211 104.202 374.597 105.473 368.042 105.473Z" fill="white"/>
<path d="M422.753 47.6625V104.243H409.6V47.6625H422.753ZM439.593 61.8075C438.364 60.8235 437.216 60.0855 436.151 59.5935C435.086 59.1015 433.734 58.8555 432.095 58.8555C429.882 58.8555 428.079 59.4295 426.686 60.5775C425.293 61.7255 424.269 63.3245 423.613 65.3745C423.039 67.3425 422.753 69.6795 422.753 72.3855L418.327 69.8025C418.327 65.2925 419.147 61.3155 420.786 57.8715C422.507 54.3455 424.678 51.5575 427.301 49.5075C430.005 47.4575 432.791 46.4325 435.659 46.4325C437.708 46.4325 439.634 46.7605 441.437 47.4165C443.24 47.9905 444.756 49.0565 445.985 50.6145L439.593 61.8075Z" fill="white"/>
<path d="M450.212 47.6625H464.717L479.468 84.1935L494.218 47.6625H508.846L479.468 109.409L450.212 47.6625Z" fill="white"/>
<path d="M525.516 86.6535C525.516 88.5395 525.966 90.1795 526.868 91.5735C527.769 92.8855 528.998 93.8695 530.555 94.5255C532.194 95.1815 534.038 95.5095 536.087 95.5095C538.709 95.5095 541.086 94.9765 543.216 93.9105C545.429 92.8445 547.191 91.2865 548.502 89.2365C549.895 87.1045 550.592 84.6445 550.592 81.8565L552.558 89.2365C552.558 92.8445 551.493 95.8785 549.362 98.3385C547.314 100.717 544.691 102.521 541.495 103.751C538.381 104.899 535.185 105.473 531.907 105.473C528.384 105.473 525.106 104.776 522.074 103.382C519.042 101.988 516.624 99.9375 514.821 97.2315C513.018 94.5255 512.117 91.2455 512.117 87.3915C512.117 81.8975 514.043 77.5515 517.894 74.3535C521.746 71.0735 527.195 69.4335 534.243 69.4335C538.013 69.4335 541.25 69.8435 543.954 70.6635C546.74 71.4835 549.035 72.4675 550.838 73.6155C552.64 74.6815 553.911 75.6655 554.648 76.5675V83.3325C552.108 81.5285 549.403 80.2165 546.535 79.3965C543.667 78.5765 540.635 78.1665 537.439 78.1665C534.653 78.1665 532.399 78.5355 530.678 79.2735C528.957 79.9295 527.646 80.8725 526.745 82.1025C525.925 83.3325 525.516 84.8495 525.516 86.6535ZM521.336 62.4225L515.928 53.0745C518.468 51.5165 521.746 49.9995 525.761 48.5235C529.859 47.0475 534.53 46.3095 539.775 46.3095C544.446 46.3095 548.543 47.0065 552.067 48.4005C555.672 49.7945 558.5 51.8035 560.548 54.4275C562.597 56.9695 563.621 60.1265 563.621 63.8985V104.243H550.592V66.4815C550.592 64.6775 550.264 63.2015 549.608 62.0535C549.035 60.9055 548.215 59.9625 547.15 59.2245C546.085 58.4865 544.814 57.9535 543.339 57.6255C541.864 57.2975 540.266 57.1335 538.545 57.1335C535.923 57.1335 533.424 57.4615 531.047 58.1175C528.752 58.6915 526.745 59.4295 525.024 60.3315C523.385 61.1515 522.156 61.8485 521.336 62.4225Z" fill="white"/>
<path d="M621.629 8.3025H635.028V104.243H621.629V8.3025ZM574.796 75.9525C574.796 69.7205 576.066 64.4315 578.606 60.0855C581.147 55.6575 584.507 52.2955 588.686 49.9995C592.947 47.6215 597.495 46.4325 602.33 46.4325C607.083 46.4325 611.222 47.6215 614.746 49.9995C618.351 52.3775 621.178 55.7805 623.227 60.2085C625.358 64.5545 626.423 69.8025 626.423 75.9525C626.423 82.0205 625.358 87.2685 623.227 91.6965C621.178 96.1245 618.351 99.5275 614.746 101.906C611.222 104.284 607.083 105.473 602.33 105.473C597.495 105.473 592.947 104.325 588.686 102.029C584.507 99.6505 581.147 96.2475 578.606 91.8195C576.066 87.3915 574.796 82.1025 574.796 75.9525ZM588.563 75.9525C588.563 79.7245 589.342 82.9635 590.899 85.6695C592.456 88.3755 594.504 90.4255 597.045 91.8195C599.667 93.2135 602.494 93.9105 605.526 93.9105C608.067 93.9105 610.566 93.2135 613.025 91.8195C615.565 90.4255 617.614 88.4165 619.171 85.7925C620.81 83.0865 621.629 79.8065 621.629 75.9525C621.629 72.0985 620.81 68.8595 619.171 66.2355C617.614 63.5295 615.565 61.4795 613.025 60.0855C610.566 58.6915 608.067 57.9945 605.526 57.9945C602.494 57.9945 599.667 58.6915 597.045 60.0855C594.504 61.4795 592.456 63.5295 590.899 66.2355C589.342 68.9415 588.563 72.1805 588.563 75.9525Z" fill="white"/>
<path d="M650.991 25.1535C650.991 22.8575 651.811 20.9305 653.45 19.3725C655.171 17.8145 657.137 17.0355 659.35 17.0355C661.726 17.0355 663.693 17.8145 665.25 19.3725C666.889 20.9305 667.709 22.8575 667.709 25.1535C667.709 27.3675 666.889 29.2945 665.25 30.9345C663.693 32.4925 661.726 33.2715 659.35 33.2715C657.137 33.2715 655.171 32.4925 653.45 30.9345C651.811 29.2945 650.991 27.3675 650.991 25.1535ZM652.835 47.6625H665.865V104.243H652.835V47.6625Z" fill="white"/>
<path d="M697.779 82.1025C697.779 86.1205 698.639 89.2365 700.36 91.4505C702.081 93.6645 704.703 94.7715 708.227 94.7715C710.767 94.7715 712.98 94.2795 714.865 93.2955C716.75 92.2295 718.225 90.7535 719.29 88.8675C720.355 86.8995 720.888 84.6445 720.888 82.1025V47.6625H734.164V104.243H720.888V95.5095C719.085 98.7895 716.75 101.291 713.881 103.013C711.095 104.653 707.735 105.473 703.802 105.473C697.492 105.473 692.616 103.505 689.174 99.5685C685.814 95.6325 684.134 90.3025 684.134 83.5785V47.6625H697.779V82.1025Z" fill="white"/>
<path d="M832 68.3265V104.243H818.724V69.8025C818.724 65.5385 817.946 62.3815 816.389 60.3315C814.914 58.1995 812.537 57.1335 809.259 57.1335C807.047 57.1335 805.08 57.6255 803.359 58.6095C801.72 59.5935 800.409 61.0285 799.426 62.9145C798.524 64.8005 798.073 67.0965 798.073 69.8025V104.243H784.798V69.8025C784.798 65.5385 784.019 62.3815 782.462 60.3315C780.987 58.1995 778.611 57.1335 775.333 57.1335C773.038 57.1335 771.031 57.6255 769.31 58.6095C767.671 59.5935 766.401 61.0285 765.499 62.9145C764.598 64.8005 764.147 67.0965 764.147 69.8025V104.243H751.117V47.6625H764.147V55.9035C765.786 52.7875 767.917 50.4505 770.539 48.8925C773.243 47.2525 776.398 46.4325 780.004 46.4325C784.183 46.4325 787.625 47.2935 790.329 49.0155C793.116 50.7375 795.123 53.2385 796.353 56.5185C798.319 53.2385 800.778 50.7375 803.728 49.0155C806.76 47.2935 810.202 46.4325 814.053 46.4325C818.069 46.4325 821.388 47.2935 824.01 49.0155C826.714 50.6555 828.722 53.1155 830.033 56.3955C831.344 59.6755 832 63.6525 832 68.3265Z" fill="white"/>
</svg>
